<svg version="1.1" id="Layer_1" xmlns="http://www.w3.org/2000/svg" xmlns:xlink="http://www.w3.org/1999/xlink" x="0px" y="0px"
	 width="100%" viewBox="0 0 200 180" enable-background="new 0 0 200 180" xml:space="preserve">
<path fill="#DD4E38" opacity="1.000000" stroke="none" 
	d="
M201.000000,88.000000 
	C201.000000,90.370560 201.000000,92.741112 200.642303,95.546143 
	C197.748825,98.499550 195.313324,101.129700 192.661774,103.520203 
	C166.381516,127.212959 140.100647,150.905411 113.709435,174.474197 
	C110.828217,177.047272 107.253204,178.843460 104.000000,181.000000 
	C102.285645,181.000000 100.571281,181.000000 98.186890,180.753601 
	C95.013702,178.917099 92.234932,177.636063 90.050789,175.688217 
	C71.824570,159.434052 53.731071,143.031219 35.549599,126.726685 
	C24.075531,116.437096 12.519354,106.239082 1.000002,96.000000 
	C1.000000,93.299988 1.000000,90.599968 1.310886,87.316933 
	C6.586356,81.846672 11.396130,76.789330 16.544365,72.103882 
	C32.413052,57.661655 48.411026,43.361481 64.606812,28.782858 
	C71.755997,35.189060 78.742241,41.340004 85.545921,47.686661 
	C86.379196,48.463963 86.694481,50.374714 86.465309,51.615269 
	C85.319313,57.818638 87.950699,62.106983 92.601639,65.864983 
	C94.118217,67.090393 95.532921,69.464417 95.566727,71.338860 
	C95.812889,84.988953 95.633270,98.646118 95.742958,112.299797 
	C95.765137,115.059807 95.068909,116.775314 92.562973,118.355759 
	C87.044907,121.835899 85.094513,127.372169 86.764908,132.956573 
	C88.524673,138.839752 94.057686,142.837662 100.748535,143.060501 
	C107.710953,143.292389 113.692276,139.635193 115.887375,133.804047 
	C117.957329,128.305359 116.397934,122.665825 111.074890,118.879189 
	C108.664185,117.164291 108.102180,115.364143 108.128677,112.684227 
	C108.238960,101.528496 108.178345,90.371078 108.180145,79.214279 
	C108.180664,75.977631 108.180229,72.740982 108.180229,68.080750 
	C115.425827,74.608612 121.595879,80.088135 127.624809,85.718758 
	C128.244949,86.297928 128.320175,87.832687 128.141785,88.833771 
	C127.056953,94.921631 129.030655,99.775017 134.158142,103.058044 
	C139.475647,106.462753 145.217682,106.507812 150.823715,103.729721 
	C155.507141,101.408821 158.146652,97.503059 158.271835,92.187691 
	C158.397629,86.846016 155.907669,82.654022 151.241287,80.451439 
	C148.219559,79.025146 144.542023,79.035240 141.204666,78.213577 
	C139.092346,77.693512 136.643570,77.333160 135.075394,76.025856 
	C129.325302,71.232346 123.835487,66.120766 118.363503,61.005035 
	C117.398453,60.102825 116.403404,58.601898 116.413467,57.385658 
	C116.507706,45.996998 111.022850,40.493248 99.779686,40.824360 
	C98.218132,40.870346 96.173904,40.890457 95.144310,40.003807 
	C87.981339,33.835300 81.027275,27.424212 73.241982,20.401508 
	C81.435013,13.710839 89.217506,7.355420 97.000000,1.000000 
	C99.041664,1.000000 101.083336,1.000000 103.729095,1.311911 
	C107.000587,3.238589 109.996887,4.484743 112.284164,6.525543 
	C133.500519,25.455614 154.674820,44.434708 175.685745,63.592155 
	C184.343994,71.486633 192.574783,79.849937 201.000000,88.000000 
z"/>
<path fill="#FEFCFC" opacity="1.000000" stroke="none" 
	d="
M96.531342,1.000000 
	C89.217506,7.355420 81.435013,13.710839 73.241982,20.401508 
	C81.027275,27.424212 87.981339,33.835300 95.144310,40.003807 
	C96.173904,40.890457 98.218132,40.870346 99.779686,40.824360 
	C111.022850,40.493248 116.507706,45.996998 116.413467,57.385658 
	C116.403404,58.601898 117.398453,60.102825 118.363503,61.005035 
	C123.835487,66.120766 129.325302,71.232346 135.075394,76.025856 
	C136.643570,77.333160 139.092346,77.693512 141.204666,78.213577 
	C144.542023,79.035240 148.219559,79.025146 151.241287,80.451439 
	C155.907669,82.654022 158.397629,86.846016 158.271835,92.187691 
	C158.146652,97.503059 155.507141,101.408821 150.823715,103.729721 
	C145.217682,106.507812 139.475647,106.462753 134.158142,103.058044 
	C129.030655,99.775017 127.056953,94.921631 128.141785,88.833771 
	C128.320175,87.832687 128.244949,86.297928 127.624809,85.718758 
	C121.595879,80.088135 115.425827,74.608612 108.180229,68.080750 
	C108.180229,72.740982 108.180664,75.977631 108.180145,79.214279 
	C108.178345,90.371078 108.238960,101.528496 108.128677,112.684227 
	C108.102180,115.364143 108.664185,117.164291 111.074890,118.879189 
	C116.397934,122.665825 117.957329,128.305359 115.887375,133.804047 
	C113.692276,139.635193 107.710953,143.292389 100.748535,143.060501 
	C94.057686,142.837662 88.524673,138.839752 86.764908,132.956573 
	C85.094513,127.372169 87.044907,121.835899 92.562973,118.355759 
	C95.068909,116.775314 95.765137,115.059807 95.742958,112.299797 
	C95.633270,98.646118 95.812889,84.988953 95.566727,71.338860 
	C95.532921,69.464417 94.118217,67.090393 92.601639,65.864983 
	C87.950699,62.106983 85.319313,57.818638 86.465309,51.615269 
	C86.694481,50.374714 86.379196,48.463963 85.545921,47.686661 
	C78.742241,41.340004 71.755997,35.189060 64.606812,28.782858 
	C48.411026,43.361481 32.413052,57.661655 16.544365,72.103882 
	C11.396130,76.789330 6.586356,81.846672 1.310886,86.866959 
	C1.000000,58.402401 1.000000,29.804798 1.000000,1.000000 
	C32.687260,1.000000 64.374969,1.000000 96.531342,1.000000 
z"/>
<path fill="#FFFEFD" opacity="1.000000" stroke="none" 
	d="
M201.000000,87.531342 
	C192.574783,79.849937 184.343994,71.486633 175.685745,63.592155 
	C154.674820,44.434708 133.500519,25.455614 112.284164,6.525543 
	C109.996887,4.484743 107.000587,3.238589 104.166595,1.311911 
	C136.256271,1.000000 168.512558,1.000000 201.000000,1.000000 
	C201.000000,29.687147 201.000000,58.374916 201.000000,87.531342 
z"/>
<path fill="#FFFEFD" opacity="1.000000" stroke="none" 
	d="
M1.000002,96.468658 
	C12.519354,106.239082 24.075531,116.437096 35.549599,126.726685 
	C53.731071,143.031219 71.824570,159.434052 90.050789,175.688217 
	C92.234932,177.636063 95.013702,178.917099 97.758423,180.753601 
	C65.744568,181.000000 33.489132,181.000000 1.000000,181.000000 
	C1.000000,152.979538 1.000000,124.958427 1.000002,96.468658 
z"/>
<path fill="#FFFEFD" opacity="1.000000" stroke="none" 
	d="
M104.468658,181.000000 
	C107.253204,178.843460 110.828217,177.047272 113.709435,174.474197 
	C140.100647,150.905411 166.381516,127.212959 192.661774,103.520203 
	C195.313324,101.129700 197.748825,98.499550 200.642303,95.990311 
	C201.000000,124.265068 201.000000,152.530136 201.000000,181.000000 
	C168.979401,181.000000 136.958359,181.000000 104.468658,181.000000 
z"/>
</svg>