<svg version="1.1" id="Layer_1" xmlns="http://www.w3.org/2000/svg" xmlns:xlink="http://www.w3.org/1999/xlink" x="0px" y="0px"
	 width="100%" viewBox="0 0 300 347" enable-background="new 0 0 300 347" xml:space="preserve">
<path fill="#F4F6F6" opacity="1.000000" stroke="none" 
	d="
M301.000000,130.000000 
	C301.000000,202.999985 301.000000,275.499969 301.000000,348.000000 
	C201.000031,348.000000 101.000061,348.000000 1.000069,348.000000 
	C1.000046,232.333389 1.000046,116.666771 1.000023,1.000116 
	C100.999931,1.000077 200.999863,1.000077 300.999878,1.000039 
	C301.000000,43.833332 301.000000,86.666664 301.000000,130.000000 
M290.925446,180.500000 
	C290.925537,153.506531 290.823944,126.512291 291.028656,99.520370 
	C291.061646,95.175072 289.881897,92.682541 285.993683,90.457291 
	C242.348572,65.478775 198.798126,40.334354 155.295685,15.107869 
	C152.159698,13.289359 149.866333,13.274042 146.719406,15.097589 
	C102.775940,40.561478 58.768959,65.916054 14.711501,91.182259 
	C11.805991,92.848518 11.007158,94.795624 11.012740,97.974319 
	C11.101690,148.628723 11.115491,199.283432 10.987423,249.937668 
	C10.978496,253.468658 12.239315,255.313354 15.146376,256.983551 
	C59.039894,282.201660 102.901413,307.475800 146.696960,332.863556 
	C149.826797,334.677887 152.109024,334.713318 155.265503,332.882996 
	C199.057022,307.489899 242.908905,282.200439 286.831421,257.034698 
	C290.088806,255.168365 291.008636,253.008881 290.988922,249.483383 
	C290.862152,226.822845 290.924866,204.161255 290.925446,180.500000 
z"/>
<path fill="#15CCED" opacity="1.000000" stroke="none" 
	d="
M290.925415,181.000000 
	C290.924866,204.161255 290.862152,226.822845 290.988922,249.483383 
	C291.008636,253.008881 290.088806,255.168365 286.831421,257.034698 
	C242.908905,282.200439 199.057022,307.489899 155.265503,332.882996 
	C152.109024,334.713318 149.826797,334.677887 146.696960,332.863556 
	C102.901413,307.475800 59.039894,282.201660 15.146376,256.983551 
	C12.239315,255.313354 10.978496,253.468658 10.987423,249.937668 
	C11.115491,199.283432 11.101690,148.628723 11.012740,97.974319 
	C11.007158,94.795624 11.805991,92.848518 14.711501,91.182259 
	C58.768959,65.916054 102.775940,40.561478 146.719406,15.097589 
	C149.866333,13.274042 152.159698,13.289359 155.295685,15.107869 
	C198.798126,40.334354 242.348572,65.478775 285.993683,90.457291 
	C289.881897,92.682541 291.061646,95.175072 291.028656,99.520370 
	C290.823944,126.512291 290.925537,153.506531 290.925415,181.000000 
M243.758041,73.686943 
	C214.315353,56.721272 184.848541,39.797115 155.465759,22.728315 
	C152.388992,20.940983 150.059586,20.667208 146.823486,22.543858 
	C105.322609,46.610645 63.755074,70.562943 22.124344,94.404411 
	C18.798325,96.309181 17.555779,98.387093 17.567020,102.254776 
	C17.706089,150.087555 17.708609,197.921021 17.568760,245.753784 
	C17.557394,249.641357 18.852379,251.690308 22.158747,253.584595 
	C63.929695,277.515961 105.629951,301.570892 147.298706,325.679901 
	C149.929703,327.202179 151.957901,327.273621 154.627533,325.728241 
	C196.435410,301.527069 238.278610,277.386627 280.192871,253.370377 
	C283.407593,251.528412 284.417389,249.417603 284.409393,245.836929 
	C284.302277,197.837311 284.304657,149.837326 284.404480,101.837677 
	C284.411591,98.422821 283.418335,96.404915 280.365234,94.701210 
	C268.292999,87.964561 256.373535,80.954086 243.758041,73.686943 
z"/>
<path fill="#1E2425" opacity="1.000000" stroke="none" 
	d="
M244.077728,73.866051 
	C256.373535,80.954086 268.292999,87.964561 280.365234,94.701210 
	C283.418335,96.404915 284.411591,98.422821 284.404480,101.837677 
	C284.304657,149.837326 284.302277,197.837311 284.409393,245.836929 
	C284.417389,249.417603 283.407593,251.528412 280.192871,253.370377 
	C238.278610,277.386627 196.435410,301.527069 154.627533,325.728241 
	C151.957901,327.273621 149.929703,327.202179 147.298706,325.679901 
	C105.629951,301.570892 63.929695,277.515961 22.158747,253.584595 
	C18.852379,251.690308 17.557394,249.641357 17.568760,245.753784 
	C17.708609,197.921021 17.706089,150.087555 17.567020,102.254776 
	C17.555779,98.387093 18.798325,96.309181 22.124344,94.404411 
	C63.755074,70.562943 105.322609,46.610645 146.823486,22.543858 
	C150.059586,20.667208 152.388992,20.940983 155.465759,22.728315 
	C184.848541,39.797115 214.315353,56.721272 244.077728,73.866051 
M213.235001,274.810577 
	C215.885086,270.647797 219.275406,266.774048 221.036377,262.264069 
	C225.132828,251.772919 224.688522,240.700333 223.404861,229.708878 
	C222.778381,224.344589 221.781982,219.023499 220.956818,213.707291 
	C224.033783,212.636215 226.558548,211.820114 229.037857,210.883682 
	C241.116058,206.321716 252.714539,200.872681 261.757904,191.312622 
	C272.808563,179.630569 272.625580,167.511566 261.360840,156.082214 
	C253.484100,148.090347 243.716751,143.096466 233.440979,139.003708 
	C229.175461,137.304779 224.823578,135.822723 220.606033,134.276886 
	C221.643021,126.525780 222.896011,119.310150 223.512619,112.040543 
	C224.407303,101.492630 223.816360,91.034286 219.127609,81.254982 
	C214.501282,71.605804 206.534210,67.352264 195.946823,68.651665 
	C183.577866,70.169731 173.432144,76.477402 163.771820,83.720970 
	C159.420181,86.983932 155.344864,90.615402 151.006332,94.193352 
	C149.497513,92.909882 148.242584,91.847519 146.993149,90.778740 
	C136.421082,81.735329 125.310410,73.591988 111.586739,69.912025 
	C95.434036,65.580727 83.958313,71.736931 80.270592,88.035522 
	C78.430626,96.167625 78.464165,104.863121 78.680061,113.277359 
	C78.857208,120.181229 80.556931,127.046028 81.618393,134.174149 
	C77.044594,135.800858 72.463120,137.254013 68.018265,139.046051 
	C57.128338,143.436523 46.779911,148.765976 38.892242,157.799744 
	C30.151506,167.810532 29.421947,178.549515 37.980938,188.505463 
	C42.769646,194.075760 48.761177,199.025711 55.095467,202.750748 
	C63.335510,207.596527 72.454414,210.947830 81.607193,215.130646 
	C81.261642,216.914124 80.832756,219.167892 80.387619,221.418472 
	C78.143661,232.763657 77.198441,244.139221 79.006744,255.669815 
	C82.049080,275.069092 95.483055,284.031189 113.915703,277.506134 
	C122.866302,274.337708 131.087189,268.916534 139.315887,263.977783 
	C143.682144,261.357239 147.358902,257.587891 151.552444,254.169617 
	C152.923203,255.356445 154.069687,256.582397 155.429230,257.488678 
	C164.807251,263.740112 173.810760,270.732300 183.760437,275.894897 
	C192.976410,280.676727 203.177155,282.088043 213.235001,274.810577 
z"/>
<path fill="#08CFF3" opacity="1.000000" stroke="none" 
	d="
M212.941223,275.028687 
	C203.177155,282.088043 192.976410,280.676727 183.760437,275.894897 
	C173.810760,270.732300 164.807251,263.740112 155.429230,257.488678 
	C154.069687,256.582397 152.923203,255.356445 151.552444,254.169617 
	C147.358902,257.587891 143.682144,261.357239 139.315887,263.977783 
	C131.087189,268.916534 122.866302,274.337708 113.915703,277.506134 
	C95.483055,284.031189 82.049080,275.069092 79.006744,255.669815 
	C77.198441,244.139221 78.143661,232.763657 80.387619,221.418472 
	C80.832756,219.167892 81.261642,216.914124 81.607193,215.130646 
	C72.454414,210.947830 63.335510,207.596527 55.095467,202.750748 
	C48.761177,199.025711 42.769646,194.075760 37.980938,188.505463 
	C29.421947,178.549515 30.151506,167.810532 38.892242,157.799744 
	C46.779911,148.765976 57.128338,143.436523 68.018265,139.046051 
	C72.463120,137.254013 77.044594,135.800858 81.618393,134.174149 
	C80.556931,127.046028 78.857208,120.181229 78.680061,113.277359 
	C78.464165,104.863121 78.430626,96.167625 80.270592,88.035522 
	C83.958313,71.736931 95.434036,65.580727 111.586739,69.912025 
	C125.310410,73.591988 136.421082,81.735329 146.993149,90.778740 
	C148.242584,91.847519 149.497513,92.909882 151.006332,94.193352 
	C155.344864,90.615402 159.420181,86.983932 163.771820,83.720970 
	C173.432144,76.477402 183.577866,70.169731 195.946823,68.651665 
	C206.534210,67.352264 214.501282,71.605804 219.127609,81.254982 
	C223.816360,91.034286 224.407303,101.492630 223.512619,112.040543 
	C222.896011,119.310150 221.643021,126.525780 220.606033,134.276886 
	C224.823578,135.822723 229.175461,137.304779 233.440979,139.003708 
	C243.716751,143.096466 253.484100,148.090347 261.360840,156.082214 
	C272.625580,167.511566 272.808563,179.630569 261.757904,191.312622 
	C252.714539,200.872681 241.116058,206.321716 229.037857,210.883682 
	C226.558548,211.820114 224.033783,212.636215 220.956818,213.707291 
	C221.781982,219.023499 222.778381,224.344589 223.404861,229.708878 
	C224.688522,240.700333 225.132828,251.772919 221.036377,262.264069 
	C219.275406,266.774048 215.885086,270.647797 212.941223,275.028687 
M180.609299,199.109131 
	C184.571930,191.975571 188.755844,184.950821 192.352203,177.637146 
	C193.335297,175.637863 193.458771,172.281754 192.432037,170.384018 
	C186.888611,160.137802 181.018814,150.055038 174.856949,140.168060 
	C173.689301,138.294495 170.730850,136.536118 168.543167,136.466354 
	C156.894409,136.094894 145.222275,136.087418 133.572723,136.436874 
	C131.372559,136.502869 128.372345,138.215591 127.217316,140.081940 
	C120.999649,150.128784 115.098503,160.383179 109.479187,170.777359 
	C108.517967,172.555359 108.644180,175.793991 109.636131,177.610962 
	C115.298172,187.982086 121.210258,198.229401 127.459816,208.255447 
	C128.596725,210.079361 131.637726,211.567856 133.885788,211.695526 
	C142.194504,212.167404 150.548248,212.285187 158.868652,212.020096 
	C175.735062,211.482742 170.956787,214.050400 180.609299,199.109131 
M45.379211,166.017761 
	C41.213970,172.751816 41.222103,176.921585 46.271034,182.767822 
	C56.349251,194.437531 70.014038,199.773895 84.196983,204.220184 
	C88.187897,194.289322 91.975189,184.908859 95.702278,175.504532 
	C95.988220,174.783051 96.133347,173.781830 95.865204,173.098465 
	C92.118233,163.549362 88.287834,154.032990 84.352074,144.194458 
	C69.949181,148.797867 56.067696,153.758514 45.379211,166.017761 
M135.269287,236.227417 
	C132.108612,232.146698 129.047363,227.982468 125.729851,224.033478 
	C124.662804,222.763336 123.020691,221.455917 121.470116,221.198349 
	C112.614716,219.727402 103.716537,218.495056 94.806198,217.398544 
	C93.731743,217.266327 91.639977,218.250168 91.463249,219.039825 
	C88.539070,232.105606 86.394348,245.285263 90.304268,258.510071 
	C93.051994,267.803925 98.205742,270.949921 107.765556,268.749146 
	C122.183983,265.429901 133.373489,256.612030 144.141907,246.596252 
	C141.121506,243.070999 138.423508,239.922058 135.269287,236.227417 
M199.073059,218.656723 
	C193.136902,219.431427 187.189346,220.131592 181.273254,221.037384 
	C179.926819,221.243530 178.255066,221.816879 177.470505,222.806076 
	C171.285431,230.604309 165.279358,238.544510 159.209747,246.434692 
	C166.328812,255.142044 182.019867,265.480560 192.537827,268.393829 
	C202.914490,271.268036 208.617035,268.480713 211.724167,258.232269 
	C215.914551,244.410767 213.915436,230.672821 210.583527,216.517761 
	C206.727615,217.213913 203.323227,217.828568 199.073059,218.656723 
M128.315796,89.139931 
	C122.554611,86.211174 117.017838,82.660507 110.985291,80.483818 
	C98.626160,76.024361 91.966736,80.117607 89.313393,92.941177 
	C89.111923,93.914925 88.893646,94.928764 88.955513,95.906738 
	C89.623871,106.473412 90.347733,117.036568 91.054420,127.600822 
	C91.283958,131.032257 93.266792,131.453003 96.222832,130.954620 
	C104.578339,129.545944 112.970688,128.356934 121.336037,127.004173 
	C122.410370,126.830437 123.777542,126.495155 124.388992,125.735573 
	C130.726227,117.862885 136.936188,109.887733 143.675156,101.312920 
	C138.705215,97.348175 133.811081,93.443916 128.315796,89.139931 
M208.876831,83.744041 
	C206.283936,79.541519 202.235840,77.820236 197.736969,78.923645 
	C191.996948,80.331474 186.205063,82.115211 180.942993,84.750313 
	C172.491684,88.982513 165.162155,94.917030 158.812164,101.668449 
	C165.138062,109.771851 171.045914,117.385635 177.029129,124.939735 
	C177.695679,125.781296 178.722717,126.723656 179.697952,126.874786 
	C189.678818,128.421616 199.683548,129.814407 210.246460,131.331345 
	C211.030899,127.217476 212.116638,123.213890 212.509430,119.143433 
	C213.644379,107.382339 215.006042,95.545868 208.876831,83.744041 
M248.713806,189.270142 
	C249.994720,188.208069 251.338623,187.212753 252.546570,186.073334 
	C261.912933,177.238525 262.376434,169.752731 252.298767,161.908157 
	C244.931564,156.173447 236.127838,152.228363 227.777481,147.841400 
	C224.664093,146.205734 221.019989,145.580261 217.716354,144.525589 
	C213.801804,154.172028 210.130753,163.079620 206.620377,172.050079 
	C206.196762,173.132584 206.296265,174.693741 206.739075,175.798172 
	C210.383987,184.888824 214.167419,193.923920 218.119888,203.486420 
	C228.931366,200.715973 238.959137,196.169983 248.713806,189.270142 
M140.650436,226.768127 
	C144.076889,230.765594 147.503342,234.763046 151.499786,239.425491 
	C156.238220,233.562454 160.493256,228.297562 165.214539,222.455734 
	C155.485092,222.455734 146.989746,222.455734 137.896393,222.455734 
	C138.872543,224.045441 139.533066,225.121109 140.650436,226.768127 
M188.792740,205.221512 
	C188.023529,206.612717 187.254318,208.003906 185.914368,210.427383 
	C193.700211,209.079773 200.346024,207.929474 208.045227,206.596848 
	C205.324463,199.471893 202.866196,193.034332 200.073563,185.721146 
	C195.965332,192.800888 192.545120,198.694916 188.792740,205.221512 
M95.244095,204.748001 
	C95.747246,205.590286 96.126556,207.049133 96.772812,207.178940 
	C102.855263,208.400558 108.983299,209.395279 116.386696,210.678909 
	C111.315468,201.968826 107.002571,194.561234 102.064751,186.080292 
	C99.576530,192.873505 97.539162,198.435852 95.244095,204.748001 
M141.081589,120.658768 
	C140.049362,122.187935 139.017120,123.717094 137.722900,125.634384 
	C147.075684,125.634384 155.481216,125.634384 165.136581,125.634384 
	C160.202332,119.753288 155.914459,114.642624 151.153076,108.967567 
	C147.569550,113.111465 144.551666,116.601280 141.081589,120.658768 
M203.772781,152.244858 
	C204.950378,148.876129 206.127960,145.507401 207.519836,141.525650 
	C200.107422,140.235733 193.518143,139.089050 185.874359,137.758865 
	C190.742447,146.115784 195.050537,153.511368 199.921005,161.872345 
	C201.414062,158.109894 202.438141,155.529266 203.772781,152.244858 
M113.751144,138.171112 
	C107.586388,139.232071 101.421623,140.293030 94.507904,141.482880 
	C97.100273,148.465317 99.416985,154.705276 102.100220,161.932465 
	C106.854149,153.765366 110.958855,146.744492 114.989998,139.681625 
	C115.161057,139.381912 114.649895,138.692825 113.751144,138.171112 
z"/>
<path fill="#1C2628" opacity="1.000000" stroke="none" 
	d="
M180.409164,199.415375 
	C170.956787,214.050400 175.735062,211.482742 158.868652,212.020096 
	C150.548248,212.285187 142.194504,212.167404 133.885788,211.695526 
	C131.637726,211.567856 128.596725,210.079361 127.459816,208.255447 
	C121.210258,198.229401 115.298172,187.982086 109.636131,177.610962 
	C108.644180,175.793991 108.517967,172.555359 109.479187,170.777359 
	C115.098503,160.383179 120.999649,150.128784 127.217316,140.081940 
	C128.372345,138.215591 131.372559,136.502869 133.572723,136.436874 
	C145.222275,136.087418 156.894409,136.094894 168.543167,136.466354 
	C170.730850,136.536118 173.689301,138.294495 174.856949,140.168060 
	C181.018814,150.055038 186.888611,160.137802 192.432037,170.384018 
	C193.458771,172.281754 193.335297,175.637863 192.352203,177.637146 
	C188.755844,184.950821 184.571930,191.975571 180.409164,199.415375 
M165.834061,158.650635 
	C156.811325,151.179977 145.784271,150.701721 137.523254,157.422760 
	C129.813858,163.695007 127.451500,174.923721 132.283081,183.651291 
	C136.515640,191.296829 143.147354,195.308777 151.962189,194.911591 
	C160.326355,194.534729 166.609650,190.363342 170.091721,182.796371 
	C174.019455,174.260895 172.614777,166.243576 165.834061,158.650635 
z"/>
<path fill="#1D2526" opacity="1.000000" stroke="none" 
	d="
M45.609348,165.734055 
	C56.067696,153.758514 69.949181,148.797867 84.352074,144.194458 
	C88.287834,154.032990 92.118233,163.549362 95.865204,173.098465 
	C96.133347,173.781830 95.988220,174.783051 95.702278,175.504532 
	C91.975189,184.908859 88.187897,194.289322 84.196983,204.220184 
	C70.014038,199.773895 56.349251,194.437531 46.271034,182.767822 
	C41.222103,176.921585 41.213970,172.751816 45.609348,165.734055 
z"/>
<path fill="#1D2526" opacity="1.000000" stroke="none" 
	d="
M135.497391,236.500259 
	C138.423508,239.922058 141.121506,243.070999 144.141907,246.596252 
	C133.373489,256.612030 122.183983,265.429901 107.765556,268.749146 
	C98.205742,270.949921 93.051994,267.803925 90.304268,258.510071 
	C86.394348,245.285263 88.539070,232.105606 91.463249,219.039825 
	C91.639977,218.250168 93.731743,217.266327 94.806198,217.398544 
	C103.716537,218.495056 112.614716,219.727402 121.470116,221.198349 
	C123.020691,221.455917 124.662804,222.763336 125.729851,224.033478 
	C129.047363,227.982468 132.108612,232.146698 135.497391,236.500259 
z"/>
<path fill="#1D2526" opacity="1.000000" stroke="none" 
	d="
M199.495941,218.549957 
	C203.323227,217.828568 206.727615,217.213913 210.583527,216.517761 
	C213.915436,230.672821 215.914551,244.410767 211.724167,258.232269 
	C208.617035,268.480713 202.914490,271.268036 192.537827,268.393829 
	C182.019867,265.480560 166.328812,255.142044 159.213974,246.437866 
	C165.279358,238.544510 171.285431,230.604309 177.470505,222.806076 
	C178.255066,221.816879 179.926819,221.243530 181.273254,221.037384 
	C187.189346,220.131592 193.136902,219.431427 199.495941,218.549957 
z"/>
<path fill="#1D2526" opacity="1.000000" stroke="none" 
	d="
M128.616379,89.339798 
	C133.811081,93.443916 138.705215,97.348175 143.675156,101.312920 
	C136.936188,109.887733 130.726227,117.862885 124.388992,125.735573 
	C123.777542,126.495155 122.410370,126.830437 121.336037,127.004173 
	C112.970688,128.356934 104.578339,129.545944 96.222832,130.954620 
	C93.266792,131.453003 91.283958,131.032257 91.054420,127.600822 
	C90.347733,117.036568 89.623871,106.473412 88.955513,95.906738 
	C88.893646,94.928764 89.111923,93.914925 89.313393,92.941177 
	C91.966736,80.117607 98.626160,76.024361 110.985291,80.483818 
	C117.017838,82.660507 122.554611,86.211174 128.616379,89.339798 
z"/>
<path fill="#1E2526" opacity="1.000000" stroke="none" 
	d="
M209.059113,84.078629 
	C215.006042,95.545868 213.644379,107.382339 212.509430,119.143433 
	C212.116638,123.213890 211.030899,127.217476 210.246460,131.331345 
	C199.683548,129.814407 189.678818,128.421616 179.697952,126.874786 
	C178.722717,126.723656 177.695679,125.781296 177.029129,124.939735 
	C171.045914,117.385635 165.138062,109.771851 158.812164,101.668449 
	C165.162155,94.917030 172.491684,88.982513 180.942993,84.750313 
	C186.205063,82.115211 191.996948,80.331474 197.736969,78.923645 
	C202.235840,77.820236 206.283936,79.541519 209.059113,84.078629 
z"/>
<path fill="#1D2526" opacity="1.000000" stroke="none" 
	d="
M248.428833,189.486816 
	C238.959137,196.169983 228.931366,200.715973 218.119888,203.486420 
	C214.167419,193.923920 210.383987,184.888824 206.739075,175.798172 
	C206.296265,174.693741 206.196762,173.132584 206.620377,172.050079 
	C210.130753,163.079620 213.801804,154.172028 217.716354,144.525589 
	C221.019989,145.580261 224.664093,146.205734 227.777481,147.841400 
	C236.127838,152.228363 244.931564,156.173447 252.298767,161.908157 
	C262.376434,169.752731 261.912933,177.238525 252.546570,186.073334 
	C251.338623,187.212753 249.994720,188.208069 248.428833,189.486816 
z"/>
<path fill="#143238" opacity="1.000000" stroke="none" 
	d="
M140.421997,226.482452 
	C139.533066,225.121109 138.872543,224.045441 137.896393,222.455734 
	C146.989746,222.455734 155.485092,222.455734 165.214539,222.455734 
	C160.493256,228.297562 156.238220,233.562454 151.499786,239.425491 
	C147.503342,234.763046 144.076889,230.765594 140.421997,226.482452 
z"/>
<path fill="#152E33" opacity="1.000000" stroke="none" 
	d="
M188.958832,204.905243 
	C192.545120,198.694916 195.965332,192.800888 200.073563,185.721146 
	C202.866196,193.034332 205.324463,199.471893 208.045227,206.596848 
	C200.346024,207.929474 193.700211,209.079773 185.914368,210.427383 
	C187.254318,208.003906 188.023529,206.612717 188.958832,204.905243 
z"/>
<path fill="#152E33" opacity="1.000000" stroke="none" 
	d="
M95.372940,204.373093 
	C97.539162,198.435852 99.576530,192.873505 102.064751,186.080292 
	C107.002571,194.561234 111.315468,201.968826 116.386696,210.678909 
	C108.983299,209.395279 102.855263,208.400558 96.772812,207.178940 
	C96.126556,207.049133 95.747246,205.590286 95.372940,204.373093 
z"/>
<path fill="#143136" opacity="1.000000" stroke="none" 
	d="
M141.307678,120.374931 
	C144.551666,116.601280 147.569550,113.111465 151.153076,108.967567 
	C155.914459,114.642624 160.202332,119.753288 165.136581,125.634384 
	C155.481216,125.634384 147.075684,125.634384 137.722900,125.634384 
	C139.017120,123.717094 140.049362,122.187935 141.307678,120.374931 
z"/>
<path fill="#152F33" opacity="1.000000" stroke="none" 
	d="
M203.617493,152.596741 
	C202.438141,155.529266 201.414062,158.109894 199.921005,161.872345 
	C195.050537,153.511368 190.742447,146.115784 185.874359,137.758865 
	C193.518143,139.089050 200.107422,140.235733 207.519836,141.525650 
	C206.127960,145.507401 204.950378,148.876129 203.617493,152.596741 
z"/>
<path fill="#152F34" opacity="1.000000" stroke="none" 
	d="
M114.103851,138.178131 
	C114.649895,138.692825 115.161057,139.381912 114.989998,139.681625 
	C110.958855,146.744492 106.854149,153.765366 102.100220,161.932465 
	C99.416985,154.705276 97.100273,148.465317 94.507904,141.482880 
	C101.421623,140.293030 107.586388,139.232071 114.103851,138.178131 
z"/>
<path fill="#04D3F8" opacity="1.000000" stroke="none" 
	d="
M166.093597,158.903198 
	C172.614777,166.243576 174.019455,174.260895 170.091721,182.796371 
	C166.609650,190.363342 160.326355,194.534729 151.962189,194.911591 
	C143.147354,195.308777 136.515640,191.296829 132.283081,183.651291 
	C127.451500,174.923721 129.813858,163.695007 137.523254,157.422760 
	C145.784271,150.701721 156.811325,151.179977 166.093597,158.903198 
z"/>
</svg>