<svg version="1.1" id="Layer_1" xmlns="http://www.w3.org/2000/svg" xmlns:xlink="http://www.w3.org/1999/xlink" x="0px" y="0px"
	 width="100%" viewBox="0 0 405 221" enable-background="new 0 0 405 221" xml:space="preserve">
<path fill="#F1EFED" opacity="1.000000" stroke="none" 
	d="
M301.000000,1.000002 
	C335.986633,1.000000 370.973297,1.000000 405.979980,1.000000 
	C405.979980,74.625183 405.979980,148.250381 405.979980,221.937775 
	C271.093048,221.937775 136.186035,221.937775 1.139514,221.937775 
	C1.139514,148.454697 1.139514,74.909042 1.139514,1.000000 
	C65.353775,1.000000 129.708221,1.000000 194.531052,1.468621 
	C195.010544,9.048929 195.021667,16.160618 194.674713,23.460056 
	C188.233139,24.113052 182.092621,24.206860 176.079483,25.130259 
	C166.973816,26.528561 157.888870,28.222048 148.936661,30.377871 
	C145.512848,31.202381 141.191803,32.534279 142.170105,38.397476 
	C142.091248,51.922222 142.098206,64.981224 142.064819,78.492676 
	C142.097595,82.274818 142.170715,85.604492 142.161453,89.400330 
	C142.093414,100.935501 142.107773,112.004517 142.076050,123.525284 
	C142.103683,127.625877 142.177399,131.274719 142.166916,135.390106 
	C142.055084,144.187286 142.010437,152.517899 142.003525,160.848557 
	C141.990662,176.329971 141.952820,176.541382 157.480408,179.994690 
	C176.394638,184.201172 195.633606,185.251587 215.434357,184.982300 
	C228.911880,184.322189 241.918243,183.643173 255.242661,183.104950 
	C256.550385,183.849762 257.604614,184.369461 258.520142,185.070312 
	C273.918640,196.857834 300.772644,194.571594 314.182648,180.309952 
	C328.840973,164.720734 330.800903,142.405289 318.985596,124.511353 
	C311.858673,113.717796 301.277649,108.401573 288.967102,105.540001 
	C289.044220,102.723030 289.100464,100.349419 289.520691,97.927170 
	C309.709137,89.793823 329.533600,81.709106 350.546448,73.139755 
	C336.391846,65.242325 323.501831,57.417606 310.017609,50.804417 
	C303.647552,47.680290 296.139038,46.877522 289.094299,44.581692 
	C288.944885,42.069580 288.847534,39.998737 288.805542,37.551403 
	C287.299286,35.152103 286.147430,32.219009 284.091736,31.293568 
	C279.636047,29.287643 274.718018,28.308733 270.056915,26.575027 
	C270.564758,25.768549 270.916138,25.110886 271.457855,24.852777 
	C281.699860,19.972940 290.259369,12.800518 298.374084,5.049385 
	C299.505981,3.968199 300.137085,2.362759 301.000000,1.000002 
z"/>
<path fill="#FAF9F8" opacity="1.000000" stroke="none" 
	d="
M300.531342,1.000002 
	C300.137085,2.362759 299.505981,3.968199 298.374084,5.049385 
	C290.259369,12.800518 281.699860,19.972940 271.457855,24.852777 
	C270.916138,25.110886 270.564758,25.768549 269.647278,26.586479 
	C244.584930,23.130819 219.845093,22.467602 195.032776,23.272305 
	C195.021667,16.160618 195.010544,9.048929 194.999710,1.468621 
	C230.020889,1.000000 265.041779,1.000000 300.531342,1.000002 
z"/>
<path fill="#ADADAD" opacity="1.000000" stroke="none" 
	d="
M142.105164,78.040222 
	C142.098206,64.981224 142.091248,51.922222 142.507874,38.472893 
	C150.829300,40.383949 158.596375,43.817272 166.652542,44.747795 
	C182.731476,46.604988 198.969040,47.088951 215.108795,48.593346 
	C215.116684,62.292217 215.156845,75.537804 214.725494,88.842239 
	C203.502365,88.273994 192.755783,87.535904 181.997864,87.047546 
	C168.147186,86.418808 154.683182,84.232018 142.105164,78.040222 
z"/>
<path fill="#ADADAD" opacity="1.000000" stroke="none" 
	d="
M214.963211,184.963409 
	C195.633606,185.251587 176.394638,184.201172 157.480408,179.994690 
	C141.952820,176.541382 141.990662,176.329971 142.003525,160.848557 
	C142.010437,152.517899 142.055084,144.187286 142.527100,135.416321 
	C148.134186,136.650635 153.194244,139.243958 158.478104,139.834457 
	C177.292618,141.937012 196.183304,143.358093 215.050262,145.503479 
	C215.024673,158.967651 214.993942,171.965530 214.963211,184.963409 
z"/>
<path fill="#94979A" opacity="1.000000" stroke="none" 
	d="
M215.141083,48.140060 
	C198.969040,47.088951 182.731476,46.604988 166.652542,44.747795 
	C158.596375,43.817272 150.829300,40.383949 142.593704,38.007149 
	C141.191803,32.534279 145.512848,31.202381 148.936661,30.377871 
	C157.888870,28.222048 166.973816,26.528561 176.079483,25.130259 
	C182.092621,24.206860 188.233139,24.113052 194.674713,23.460056 
	C219.845093,22.467602 244.584930,23.130819 269.579407,26.921305 
	C274.718018,28.308733 279.636047,29.287643 284.091736,31.293568 
	C286.147430,32.219009 287.299286,35.152103 288.470276,37.626915 
	C285.006042,39.433380 281.932495,40.787834 278.484741,42.168968 
	C273.591949,43.134895 269.111694,44.571808 264.547760,44.923992 
	C248.094116,46.193657 231.612274,47.097836 215.141083,48.140060 
z"/>
<path fill="#ADADAD" opacity="1.000000" stroke="none" 
	d="
M142.122131,123.073540 
	C142.107773,112.004517 142.093414,100.935501 142.501617,89.470551 
	C149.041443,91.053307 155.039566,94.117905 161.298569,94.804535 
	C179.189850,96.767265 197.187103,97.764076 215.110107,99.594009 
	C215.086334,111.333405 215.095154,122.619560 214.629730,133.936523 
	C198.120651,132.963272 182.001114,132.643082 166.086060,130.671799 
	C157.909821,129.659073 150.098404,125.700745 142.122131,123.073540 
z"/>
<path fill="#FAF9F8" opacity="1.000000" stroke="none" 
	d="
M289.146332,45.022957 
	C296.139038,46.877522 303.647552,47.680290 310.017609,50.804417 
	C323.501831,57.417606 336.391846,65.242325 350.546448,73.139755 
	C329.533600,81.709106 309.709137,89.793823 289.466919,97.479523 
	C288.951752,94.365501 288.854370,91.650490 288.828003,88.487122 
	C288.897461,84.704407 288.895935,81.370071 288.943665,77.566513 
	C289.044098,66.405853 289.095215,55.714405 289.146332,45.022957 
z"/>
<path fill="#94979A" opacity="1.000000" stroke="none" 
	d="
M288.894409,78.035728 
	C288.895935,81.370071 288.897461,84.704407 288.489563,88.555084 
	C285.017151,90.415352 281.954163,91.759285 278.501953,93.094101 
	C275.215027,93.729111 272.345764,94.719658 269.414825,94.960709 
	C251.331848,96.447960 233.234940,97.766289 215.142670,99.140770 
	C197.187103,97.764076 179.189850,96.767265 161.298569,94.804535 
	C155.039566,94.117905 149.041443,91.053307 142.584015,89.004395 
	C142.170715,85.604492 142.097595,82.274818 142.064819,78.492676 
	C154.683182,84.232018 168.147186,86.418808 181.997864,87.047546 
	C192.755783,87.535904 203.502365,88.273994 215.160431,88.888107 
	C228.953735,88.212372 241.883423,87.986351 254.711990,86.728828 
	C262.866058,85.929520 270.869904,83.597992 279.310822,81.926964 
	C282.751801,80.612152 285.823120,79.323936 288.894409,78.035728 
z"/>
<path fill="#E8EBEA" opacity="1.000000" stroke="none" 
	d="
M288.946259,105.983353 
	C301.277649,108.401573 311.858673,113.717796 318.985596,124.511353 
	C330.800903,142.405289 328.840973,164.720734 314.182648,180.309952 
	C300.772644,194.571594 273.918640,196.857834 258.520142,185.070312 
	C257.604614,184.369461 256.550385,183.849762 255.106964,182.810028 
	C251.937408,179.247635 248.971420,176.301880 246.554474,172.959152 
	C240.267303,164.263702 239.411362,154.222122 239.996979,143.533371 
	C240.952133,139.867462 241.850601,136.583862 242.853729,132.922272 
	C249.897446,116.776909 261.911865,107.899200 279.491211,105.971466 
	C282.943359,105.980431 285.944794,105.981895 288.946259,105.983353 
M279.731659,187.165009 
	C283.550171,187.047562 287.483307,187.483734 291.168152,186.720718 
	C311.509766,182.508591 324.871399,162.188599 320.814789,142.047821 
	C316.617859,121.210457 296.445007,107.763321 275.614014,111.917229 
	C257.549744,115.519440 244.116058,132.690613 245.052780,150.981155 
	C246.016891,169.806442 260.715607,185.540726 279.731659,187.165009 
z"/>
<path fill="#D1D1D1" opacity="1.000000" stroke="none" 
	d="
M239.940308,143.915680 
	C239.411362,154.222122 240.267303,164.263702 246.554474,172.959152 
	C248.971420,176.301880 251.937408,179.247635 254.788910,182.669220 
	C241.918243,183.643173 228.911880,184.322189 215.434357,184.982300 
	C214.993942,171.965530 215.024673,158.967651 215.510651,145.458557 
	C223.957382,144.603439 231.948853,144.259567 239.940308,143.915680 
z"/>
<path fill="#94979A" opacity="1.000000" stroke="none" 
	d="
M239.996979,143.533386 
	C231.948853,144.259567 223.957382,144.603439 215.505539,144.992249 
	C196.183304,143.358093 177.292618,141.937012 158.478104,139.834457 
	C153.194244,139.243958 148.134186,136.650635 142.611298,134.949768 
	C142.177399,131.274719 142.103683,127.625877 142.076050,123.525284 
	C150.098404,125.700745 157.909821,129.659073 166.086060,130.671799 
	C182.001114,132.643082 198.120651,132.963272 215.086334,133.975830 
	C224.927811,133.756302 233.838455,133.528275 242.749084,133.300247 
	C241.850601,136.583862 240.952133,139.867462 239.996979,143.533386 
z"/>
<path fill="#ADADAD" opacity="1.000000" stroke="none" 
	d="
M288.943665,77.566513 
	C285.823120,79.323936 282.751801,80.612152 279.319336,81.463142 
	C278.925110,68.064705 278.891998,55.103489 278.858917,42.142281 
	C281.932495,40.787834 285.006042,39.433380 288.414917,38.003410 
	C288.847534,39.998737 288.944885,42.069580 289.094299,44.581688 
	C289.095215,55.714405 289.044098,66.405853 288.943665,77.566513 
z"/>
<path fill="#ADADAD" opacity="1.000000" stroke="none" 
	d="
M288.967102,105.540001 
	C285.944794,105.981895 282.943359,105.980431 279.464966,105.512863 
	C278.955750,101.065567 278.923431,97.084389 278.891144,93.103210 
	C281.954163,91.759285 285.017151,90.415352 288.418579,89.003456 
	C288.854370,91.650490 288.951752,94.365501 289.102905,97.528152 
	C289.100464,100.349419 289.044220,102.723030 288.967102,105.540001 
z"/>
<path fill="#D0D0D0" opacity="1.000000" stroke="none" 
	d="
M278.484741,42.168961 
	C278.891998,55.103489 278.925110,68.064705 278.949646,81.489738 
	C270.869904,83.597992 262.866058,85.929520 254.711990,86.728828 
	C241.883423,87.986351 228.953735,88.212372 215.631927,88.829254 
	C215.156845,75.537804 215.116684,62.292217 215.108795,48.593346 
	C231.612274,47.097836 248.094116,46.193657 264.547760,44.923992 
	C269.111694,44.571808 273.591949,43.134895 278.484741,42.168961 
z"/>
<path fill="#D0D0D0" opacity="1.000000" stroke="none" 
	d="
M278.501953,93.094101 
	C278.923431,97.084389 278.955750,101.065567 279.014282,105.505356 
	C261.911865,107.899200 249.897446,116.776909 242.853729,132.922272 
	C233.838455,133.528275 224.927811,133.756302 215.560577,133.945023 
	C215.095154,122.619560 215.086334,111.333405 215.110107,99.594009 
	C233.234940,97.766289 251.331848,96.447960 269.414825,94.960709 
	C272.345764,94.719658 275.215027,93.729111 278.501953,93.094101 
z"/>
<path fill="#41AB03" opacity="1.000000" stroke="none" 
	d="
M279.268738,187.138611 
	C260.715607,185.540726 246.016891,169.806442 245.052780,150.981155 
	C244.116058,132.690613 257.549744,115.519440 275.614014,111.917229 
	C296.445007,107.763321 316.617859,121.210457 320.814789,142.047821 
	C324.871399,162.188599 311.509766,182.508591 291.168152,186.720718 
	C287.483307,187.483734 283.550171,187.047562 279.268738,187.138611 
M291.391357,155.881073 
	C295.897705,153.243271 300.404053,150.605453 305.346954,147.712128 
	C293.267853,140.777267 281.870758,134.233948 270.142517,127.500519 
	C270.142517,141.384567 270.142517,154.410904 270.142517,168.044510 
	C277.306458,163.918991 284.016602,160.054779 291.391357,155.881073 
z"/>
<path fill="#FDFEFC" opacity="1.000000" stroke="none" 
	d="
M291.059052,156.035828 
	C284.016602,160.054779 277.306458,163.918991 270.142517,168.044510 
	C270.142517,154.410904 270.142517,141.384567 270.142517,127.500519 
	C281.870758,134.233948 293.267853,140.777267 305.346954,147.712128 
	C300.404053,150.605453 295.897705,153.243271 291.059052,156.035828 
z"/>
</svg>