<svg version="1.1" id="Layer_1" xmlns="http://www.w3.org/2000/svg" xmlns:xlink="http://www.w3.org/1999/xlink" x="0px" y="0px"
	 width="100%" viewBox="0 0 225 225" enable-background="new 0 0 225 225" xml:space="preserve">
<path fill="#FFFFFF" opacity="1.000000" stroke="none" 
	d="
M150.000000,226.000000 
	C100.000000,226.000000 50.500008,226.000000 1.000007,226.000000 
	C1.000004,151.000000 1.000004,76.000015 1.000002,1.000017 
	C75.999992,1.000011 150.999985,1.000011 225.999969,1.000006 
	C225.999985,75.999985 225.999985,150.999969 226.000000,225.999969 
	C200.833328,226.000000 175.666672,226.000000 150.000000,226.000000 
M138.651718,157.901993 
	C146.555191,157.934357 154.460815,158.071915 162.360260,157.908661 
	C163.906693,157.876694 165.429062,156.679489 166.985123,155.080185 
	C166.989380,139.769836 166.845718,124.457085 167.093552,109.150673 
	C167.162415,104.898376 165.783096,103.566071 161.702835,103.927605 
	C158.235306,104.234840 154.713089,104.118622 151.225647,103.958946 
	C146.787155,103.755730 142.359329,103.319923 137.934937,102.086441 
	C137.960968,99.388161 137.986984,96.689880 138.055939,93.056076 
	C137.950104,84.671478 137.844254,76.286888 137.868454,67.031738 
	C139.549179,58.456001 135.405502,52.584904 128.197464,49.334221 
	C121.482132,46.305729 114.150024,44.644848 106.406120,42.092083 
	C96.780754,41.747765 87.027824,40.289669 77.566010,41.373329 
	C68.160439,42.450546 58.776993,45.379932 49.885899,48.801651 
	C41.755024,51.930801 37.206638,58.398262 39.048252,68.811806 
	C39.080288,76.924286 39.112328,85.036774 39.031208,93.956963 
	C39.112465,95.591568 39.193726,97.226181 39.065155,99.794647 
	C39.107243,107.924484 39.149326,116.054314 39.039265,125.004822 
	C39.118664,126.958824 39.198063,128.912827 39.070869,131.800537 
	C39.037830,138.766708 38.709450,145.750290 39.119053,152.690338 
	C39.279892,155.415451 40.488869,158.562317 42.260998,160.621826 
	C48.649044,168.045761 57.496597,170.786667 67.440674,172.744934 
	C71.184563,173.379074 74.906410,174.331924 78.676125,174.592545 
	C95.578102,175.760971 112.249619,174.813141 127.527267,166.552643 
	C130.953888,164.699890 133.438309,161.104538 136.801102,158.131088 
	C137.073456,157.954727 137.363419,157.814880 138.651718,157.901993 
z"/>
<path fill="#ABB9BF" opacity="1.000000" stroke="none" 
	d="
M137.738403,67.902290 
	C137.844254,76.286888 137.950104,84.671478 137.752716,93.700424 
	C134.621353,97.243378 131.793243,100.141991 128.498810,103.056076 
	C121.437256,103.067924 114.841988,103.062355 108.246727,103.061157 
	C100.122215,103.059677 100.122215,103.061249 99.591812,110.992340 
	C94.428780,111.325272 89.677757,112.078705 84.968712,111.872643 
	C78.940781,111.608871 72.946663,110.572197 66.954025,109.408447 
	C66.975044,99.972351 66.980003,90.996384 67.244904,82.008377 
	C67.677887,81.983849 67.850922,81.971367 68.455307,81.972282 
	C78.725616,82.324829 88.566643,82.983025 98.402977,82.919128 
	C109.684769,82.845833 120.274673,79.630875 129.995224,73.901657 
	C132.785614,72.257019 135.168610,69.921196 137.738403,67.902290 
z"/>
<path fill="#8299A2" opacity="1.000000" stroke="none" 
	d="
M137.803436,67.467010 
	C135.168610,69.921196 132.785614,72.257019 129.995224,73.901657 
	C120.274673,79.630875 109.684769,82.845833 98.402977,82.919128 
	C88.566643,82.983025 78.725616,82.324829 68.481110,81.631546 
	C69.189262,79.879128 70.154045,78.323334 71.440147,77.107414 
	C82.093758,67.035194 92.829765,57.050083 103.474045,46.968094 
	C104.872513,45.643497 105.893570,43.920441 107.089424,42.381931 
	C114.150024,44.644848 121.482132,46.305729 128.197464,49.334221 
	C135.405502,52.584904 139.549179,58.456001 137.803436,67.467010 
z"/>
<path fill="#8DA6B0" opacity="1.000000" stroke="none" 
	d="
M106.747772,42.237007 
	C105.893570,43.920441 104.872513,45.643497 103.474045,46.968094 
	C92.829765,57.050083 82.093758,67.035194 71.440147,77.107414 
	C70.154045,78.323334 69.189262,79.879128 68.049759,81.618141 
	C67.850922,81.971367 67.677887,81.983849 66.912247,81.843361 
	C60.458157,79.429413 54.434956,77.503769 48.794731,74.783928 
	C45.312229,73.104599 42.413078,70.215538 39.252037,67.869576 
	C37.206638,58.398262 41.755024,51.930801 49.885899,48.801651 
	C58.776993,45.379932 68.160439,42.450546 77.566010,41.373329 
	C87.027824,40.289669 96.780754,41.747765 106.747772,42.237007 
z"/>
<path fill="#ACBAC0" opacity="1.000000" stroke="none" 
	d="
M136.356491,158.311432 
	C133.438309,161.104538 130.953888,164.699890 127.527267,166.552643 
	C112.249619,174.813141 95.578102,175.760971 78.676125,174.592545 
	C74.906410,174.331924 71.184563,173.379074 67.189194,172.018372 
	C66.964729,162.517731 66.991737,153.743652 67.455986,144.977875 
	C78.603088,145.329727 89.312943,145.673279 100.039261,146.452332 
	C100.378532,149.866348 100.701355,152.844864 101.081345,156.240982 
	C102.767586,157.104111 104.388992,157.901947 106.026985,157.937607 
	C116.134743,158.157684 126.246239,158.206009 136.356491,158.311432 
z"/>
<path fill="#E7EBED" opacity="1.000000" stroke="none" 
	d="
M101.024178,155.823380 
	C100.701355,152.844864 100.378532,149.866348 100.089035,146.072540 
	C100.097603,144.493164 100.072845,143.729111 100.059158,142.499573 
	C100.028938,133.012726 99.987640,123.991341 100.005798,114.574242 
	C100.050987,113.114525 100.036736,112.050507 100.022484,110.986496 
	C100.122215,103.061249 100.122215,103.059677 108.246727,103.061157 
	C114.841988,103.062355 121.437256,103.067924 128.791748,103.268135 
	C132.342957,103.304611 135.134918,103.144493 137.926895,102.984383 
	C142.359329,103.319923 146.787155,103.755730 151.225647,103.958946 
	C154.713089,104.118622 158.235306,104.234840 161.702835,103.927605 
	C165.783096,103.566071 167.162415,104.898376 167.093552,109.150673 
	C166.845718,124.457085 166.989380,139.769836 166.509338,155.543030 
	C156.642761,156.026276 147.251953,156.046661 137.402222,156.033844 
	C124.970238,155.941559 112.997208,155.882462 101.024178,155.823380 
M162.870316,108.187454 
	C161.824234,107.920624 160.777130,107.417587 159.732224,107.422096 
	C141.518692,107.500572 123.305443,107.641281 104.357719,107.936890 
	C104.357719,122.486839 104.357719,137.036789 104.357719,151.846909 
	C123.685150,151.846909 142.482758,151.853958 161.280258,151.809036 
	C161.785477,151.807816 162.289352,151.244034 162.944214,150.499512 
	C162.944214,150.499512 162.870682,150.037415 163.016861,149.105392 
	C162.966080,136.058151 162.915298,123.010925 162.950180,109.479263 
	C162.950180,109.479263 162.869141,108.994049 162.870316,108.187454 
z"/>
<path fill="#B9C8CF" opacity="1.000000" stroke="none" 
	d="
M39.150146,68.340691 
	C42.413078,70.215538 45.312229,73.104599 48.794731,74.783928 
	C54.434956,77.503769 60.458157,79.429413 66.652306,81.855408 
	C66.980003,90.996384 66.975044,99.972351 66.585464,109.396622 
	C63.241070,108.889954 60.261330,107.992241 57.325413,106.968811 
	C49.774948,104.336792 42.880119,100.812912 39.144367,93.149254 
	C39.112328,85.036774 39.080288,76.924286 39.150146,68.340691 
z"/>
<path fill="#BAC9D0" opacity="1.000000" stroke="none" 
	d="
M67.018745,144.969559 
	C66.991737,153.743652 66.964729,162.517731 66.883080,171.786545 
	C57.496597,170.786667 48.649044,168.045761 42.260998,160.621826 
	C40.488869,158.562317 39.279892,155.415451 39.119053,152.690338 
	C38.709450,145.750290 39.037830,138.766708 39.493649,131.403687 
	C41.170517,132.065262 42.411034,133.140259 43.680981,134.179306 
	C50.211323,139.522354 57.573631,142.972610 66.224686,144.080292 
	C66.707985,144.399063 66.902313,144.654709 67.018745,144.969559 
z"/>
<path fill="#B9C8CF" opacity="1.000000" stroke="none" 
	d="
M39.191414,124.184151 
	C39.149326,116.054314 39.107243,107.924484 39.480907,99.419472 
	C46.926601,107.558342 56.788696,110.607285 66.969543,113.528587 
	C66.976189,122.966812 66.969360,131.943604 66.726318,140.952087 
	C66.490112,140.983765 66.019867,141.061584 65.674469,140.906937 
	C64.379555,140.487946 63.409058,140.282104 62.483776,139.950195 
	C53.376575,136.683319 43.499416,134.543259 39.191414,124.184151 
z"/>
<path fill="#8AA1AA" opacity="1.000000" stroke="none" 
	d="
M66.956062,113.067154 
	C56.788696,110.607285 46.926601,107.558342 39.585823,98.952545 
	C39.193726,97.226181 39.112465,95.591568 39.087788,93.553108 
	C42.880119,100.812912 49.774948,104.336792 57.325413,106.968811 
	C60.261330,107.992241 63.241070,108.889954 66.569412,109.856750 
	C72.946663,110.572197 78.940781,111.608871 84.968712,111.872643 
	C89.677757,112.078705 94.428780,111.325272 99.591812,110.992340 
	C100.036736,112.050507 100.050987,113.114525 99.542465,114.582031 
	C97.194099,114.995125 95.360680,115.119141 93.544235,114.994926 
	C84.679024,114.388710 75.818344,113.716209 66.956062,113.067154 
z"/>
<path fill="#8DA6B0" opacity="1.000000" stroke="none" 
	d="
M39.115341,124.594482 
	C43.499416,134.543259 53.376575,136.683319 62.483776,139.950195 
	C63.409058,140.282104 64.379555,140.487946 65.668518,141.268311 
	C66.009850,142.508865 66.011726,143.233398 66.013603,143.957947 
	C57.573631,142.972610 50.211323,139.522354 43.680981,134.179306 
	C42.411034,133.140259 41.170517,132.065262 39.596947,130.936829 
	C39.198063,128.912827 39.118664,126.958824 39.115341,124.594482 
z"/>
<path fill="#95A2A8" opacity="1.000000" stroke="none" 
	d="
M101.081345,156.240982 
	C112.997208,155.882462 124.970238,155.941559 137.410400,156.311600 
	C137.808685,156.985550 137.739838,157.348572 137.671005,157.711578 
	C137.363419,157.814880 137.073456,157.954727 136.578796,158.221252 
	C126.246239,158.206009 116.134743,158.157684 106.026985,157.937607 
	C104.388992,157.901947 102.767586,157.104111 101.081345,156.240982 
z"/>
<path fill="#E0E0E0" opacity="1.000000" stroke="none" 
	d="
M138.161362,157.806793 
	C137.739838,157.348572 137.808685,156.985550 137.869354,156.344788 
	C147.251953,156.046661 156.642761,156.026276 166.498047,156.012787 
	C165.429062,156.679489 163.906693,157.876694 162.360260,157.908661 
	C154.460815,158.071915 146.555191,157.934357 138.161362,157.806793 
z"/>
<path fill="#8DA6B0" opacity="1.000000" stroke="none" 
	d="
M137.930908,102.535416 
	C135.134918,103.144493 132.342957,103.304611 129.258057,103.252663 
	C131.793243,100.141991 134.621353,97.243378 137.731232,94.168182 
	C137.986984,96.689880 137.960968,99.388161 137.930908,102.535416 
z"/>
<path fill="#859BA4" opacity="1.000000" stroke="none" 
	d="
M66.224686,144.080292 
	C66.011726,143.233398 66.009850,142.508865 66.013916,141.422943 
	C66.019867,141.061584 66.490112,140.983765 67.129272,141.028625 
	C78.528313,141.703995 89.288200,142.334518 100.048080,142.965042 
	C100.072845,143.729111 100.097603,144.493164 100.072586,145.637024 
	C89.312943,145.673279 78.603088,145.329727 67.455986,144.977875 
	C66.902313,144.654709 66.707985,144.399063 66.224686,144.080292 
z"/>
<path fill="#47AE50" opacity="1.000000" stroke="none" 
	d="
M162.793854,150.942596 
	C162.289352,151.244034 161.785477,151.807816 161.280258,151.809036 
	C142.482758,151.853958 123.685150,151.846909 104.357719,151.846909 
	C104.357719,137.036789 104.357719,122.486839 104.892342,108.168808 
	C107.027344,108.603668 108.627205,108.978264 110.228195,108.983192 
	C127.466957,109.036263 144.705887,109.031075 162.050415,109.239670 
	C162.329178,109.697739 162.565338,109.873138 162.864517,109.963692 
	C162.915298,123.010925 162.966080,136.058151 162.791351,149.641174 
	C162.565857,150.176971 162.448853,150.605133 162.448853,150.605133 
	C162.448853,150.605133 162.793854,150.942596 162.793854,150.942596 
M124.733536,127.298897 
	C122.039146,129.187073 116.218391,128.263992 118.433464,134.838089 
	C123.581154,132.588913 128.761444,130.472565 133.802261,128.064316 
	C136.543915,126.754486 136.593002,123.744270 133.869843,122.452324 
	C128.839066,120.065567 123.646561,118.019699 118.090637,115.647919 
	C117.398743,124.411957 126.183594,121.273834 128.843994,125.599411 
	C127.741234,126.074554 126.597931,126.567169 124.733536,127.298897 
M136.992081,143.483292 
	C137.053421,143.801544 137.105667,144.396347 137.177383,144.398697 
	C143.417542,144.603714 149.658920,144.795593 155.901428,144.850494 
	C156.307190,144.854050 156.722427,143.780518 157.133255,143.208023 
	C156.534973,142.803116 155.930740,142.038940 155.339325,142.048767 
	C149.265793,142.149475 143.194321,142.375580 136.992081,143.483292 
z"/>
<path fill="#ABB9BF" opacity="1.000000" stroke="none" 
	d="
M100.059158,142.499573 
	C89.288200,142.334518 78.528313,141.703995 67.365479,140.996933 
	C66.969360,131.943604 66.976189,122.966812 66.969543,113.528587 
	C75.818344,113.716209 84.679024,114.388710 93.544235,114.994926 
	C95.360680,115.119141 97.194099,114.995125 99.483025,114.977737 
	C99.987640,123.991341 100.028938,133.012726 100.059158,142.499573 
z"/>
<path fill="#33953C" opacity="1.000000" stroke="none" 
	d="
M161.944778,109.041824 
	C144.705887,109.031075 127.466957,109.036263 110.228195,108.983192 
	C108.627205,108.978264 107.027344,108.603668 105.259552,108.084579 
	C123.305443,107.641281 141.518692,107.500572 159.732224,107.422096 
	C160.777130,107.417587 161.824234,107.920624 162.638428,108.598831 
	C162.406555,109.010208 161.944778,109.041817 161.944778,109.041824 
z"/>
<path fill="#2FA839" opacity="1.000000" stroke="none" 
	d="
M162.869034,150.721054 
	C162.793854,150.942596 162.448853,150.605133 162.448853,150.605133 
	C162.448853,150.605133 162.565857,150.176971 162.718262,150.107193 
	C162.870682,150.037415 162.944214,150.499512 162.869034,150.721054 
z"/>
<path fill="#2FA839" opacity="1.000000" stroke="none" 
	d="
M162.050415,109.239662 
	C161.944778,109.041817 162.406555,109.010208 162.637848,109.002129 
	C162.869141,108.994049 162.950180,109.479263 162.907349,109.721481 
	C162.565338,109.873138 162.329178,109.697739 162.050415,109.239662 
z"/>
<path fill="#E0E9E6" opacity="1.000000" stroke="none" 
	d="
M125.094086,127.179337 
	C126.597931,126.567169 127.741234,126.074554 128.843994,125.599411 
	C126.183594,121.273834 117.398743,124.411957 118.090637,115.647919 
	C123.646561,118.019699 128.839066,120.065567 133.869843,122.452324 
	C136.593002,123.744270 136.543915,126.754486 133.802261,128.064316 
	C128.761444,130.472565 123.581154,132.588913 118.433464,134.838089 
	C116.218391,128.263992 122.039146,129.187073 125.094086,127.179337 
z"/>
<path fill="#EDEEF3" opacity="1.000000" stroke="none" 
	d="
M137.057190,143.025009 
	C143.194321,142.375580 149.265793,142.149475 155.339325,142.048767 
	C155.930740,142.038940 156.534973,142.803116 157.133255,143.208023 
	C156.722427,143.780518 156.307190,144.854050 155.901428,144.850494 
	C149.658920,144.795593 143.417542,144.603714 137.177383,144.398697 
	C137.105667,144.396347 137.053421,143.801544 137.057190,143.025009 
z"/>
</svg>