<svg version="1.1" id="Layer_1" xmlns="http://www.w3.org/2000/svg" xmlns:xlink="http://www.w3.org/1999/xlink" x="0px" y="0px"
	 width="100%" viewBox="0 0 860 900" enable-background="new 0 0 860 900" xml:space="preserve">
<path fill="#F7F7F7" opacity="1.000000" stroke="none" 
	d="
M861.000000,327.000000 
	C861.000000,518.666687 861.000000,709.833313 861.000000,901.000000 
	C574.333313,901.000000 287.666656,901.000000 1.000000,901.000000 
	C1.000000,601.000000 1.000000,301.000000 1.000000,1.000000 
	C287.666656,1.000000 574.333313,1.000000 861.000000,1.000000 
	C861.000000,109.500000 861.000000,218.000000 861.000000,327.000000 
M571.160339,815.696655 
	C637.845947,790.336365 694.573303,750.666138 739.497864,695.278015 
	C813.753418,603.727112 842.927979,498.830750 826.433899,382.231781 
	C813.762024,292.652283 773.918335,215.915726 708.515686,153.375824 
	C627.511108,75.916779 530.274170,39.018806 418.224213,41.344887 
	C407.810974,41.561062 397.415955,42.655689 387.012482,43.342434 
	C386.879150,43.758068 386.745850,44.173702 386.612518,44.589336 
	C413.231812,63.390816 438.146423,84.186584 461.694122,107.107956 
	C440.713531,127.056503 420.793243,147.207397 402.530396,169.704895 
	C404.579926,169.704895 405.743988,169.794235 406.890930,169.691971 
	C447.348450,166.085541 486.716095,171.113220 524.810791,185.159592 
	C646.053711,229.864548 719.794922,352.606873 700.367554,480.345276 
	C686.468811,571.732056 637.215027,639.496277 555.716919,683.018494 
	C504.605835,710.313110 449.646637,718.501770 392.421051,710.727966 
	C356.710663,705.876953 323.307098,693.903687 292.170959,675.639893 
	C289.945251,674.334351 286.910309,673.816467 284.277832,673.888550 
	C259.653870,674.563049 235.036179,675.463989 210.415146,676.251892 
	C206.466980,676.378235 202.511307,676.269592 198.300171,676.269592 
	C198.213745,677.349426 198.032578,678.153015 198.103806,678.933594 
	C200.856277,709.102783 203.571732,739.275696 206.548553,769.422913 
	C206.733749,771.298645 208.628098,773.523804 210.341980,774.655579 
	C272.579834,815.754822 341.094238,837.723694 415.526733,840.702637 
	C468.730499,842.832031 520.427551,834.441956 571.160339,815.696655 
M124.090759,351.568542 
	C138.197128,342.805603 152.303497,334.042664 165.998703,325.535156 
	C161.485703,302.244995 157.009659,279.145599 152.468246,255.708862 
	C123.294830,261.109344 94.818565,268.714783 66.753738,279.039307 
	C78.448616,308.196259 92.128098,335.761200 108.645149,362.198700 
	C113.913994,358.570770 118.703293,355.273010 124.090759,351.568542 
M160.681808,648.835022 
	C165.058365,649.272339 169.434921,649.709656 173.301987,650.096069 
	C175.291153,628.203979 177.112457,606.999939 179.247940,585.827454 
	C179.593323,582.403259 178.819153,581.001099 175.678528,579.531006 
	C157.606567,571.071045 139.682434,562.295349 121.708549,553.625916 
	C120.395775,552.992737 119.085976,552.353455 117.488869,551.578186 
	C104.290077,578.127808 93.588753,605.278076 84.930679,633.690369 
	C109.639923,640.651367 134.570312,645.393555 160.681808,648.835022 
M94.351295,505.123627 
	C98.450180,507.827606 102.549065,510.531616 106.390274,513.065613 
	C118.426987,494.376892 130.107498,476.241211 141.617111,458.370911 
	C127.960678,441.251404 114.323029,424.155426 100.608879,406.963562 
	C79.203308,424.475739 59.314774,443.283813 40.141327,464.841431 
	C58.294361,478.367523 76.010109,491.567810 94.351295,505.123627 
M246.870789,150.717621 
	C226.423553,145.511993 205.796539,141.288239 183.657745,138.622971 
	C183.657745,164.892303 183.657745,190.444458 183.657745,216.076324 
	C204.318329,214.849518 224.662094,213.641525 244.811111,212.445099 
	C250.095200,193.131912 255.345734,173.941391 260.677643,154.453415 
	C256.302490,153.267090 251.983566,152.096024 246.870789,150.717621 
M378.449310,89.065826 
	C366.859222,80.867027 355.269165,72.668236 342.612183,63.714714 
	C331.130096,86.739532 320.201385,108.654671 309.347656,130.419464 
	C327.033112,138.131027 343.503662,145.228027 359.879700,152.536789 
	C362.615540,153.757828 363.752960,152.516602 365.224701,150.751007 
	C371.505707,143.215958 377.779175,135.671921 384.208954,128.264450 
	C390.053680,121.530983 396.096893,114.969810 402.390503,107.956161 
	C394.370483,101.628822 386.688629,95.568283 378.449310,89.065826 
M136.582855,711.913879 
	C149.856583,725.992188 163.619263,739.533020 179.214584,751.647095 
	C177.248627,725.409912 175.340530,699.944885 173.467575,674.948914 
	C148.370453,670.785217 123.330132,666.630920 97.762779,662.389160 
	C109.335014,680.091125 122.241646,696.115112 136.582855,711.913879 
M43.063782,539.490662 
	C48.703411,561.424683 55.926224,582.800720 65.318939,603.455994 
	C74.716736,581.285889 84.030762,559.313354 93.200966,537.680115 
	C73.906479,523.794861 54.554031,509.867859 33.785213,494.921600 
	C37.011395,510.419739 39.953094,524.551270 43.063782,539.490662 
M82.020020,382.595093 
	C85.030296,380.704193 82.771660,378.931763 81.842430,377.210297 
	C71.976738,358.932922 62.084385,340.669983 52.191048,322.407562 
	C51.628338,321.368835 50.993305,320.369354 49.944103,318.593689 
	C38.318130,354.901337 32.236343,391.121216 31.073181,428.051422 
	C48.051418,412.883789 64.762245,397.955048 82.020020,382.595093 
M98.236732,218.706833 
	C94.730942,224.202789 91.225151,229.698746 87.390099,235.710892 
	C108.814362,230.664749 129.262009,225.848633 149.026413,221.193436 
	C149.026413,200.015076 149.026413,179.202133 149.026413,157.166153 
	C129.569931,176.534927 113.120697,196.503571 98.236732,218.706833 
M279.330566,70.846870 
	C256.820190,80.310051 235.107529,91.274498 214.039368,105.110008 
	C215.400696,105.532166 215.972748,105.749687 216.563446,105.886909 
	C234.219803,109.988258 251.925217,113.894028 269.500793,118.315987 
	C273.595306,119.346146 274.810455,118.228928 276.393738,114.758018 
	C283.503906,99.170898 290.969452,83.745880 298.307831,68.262878 
	C299.044769,66.708046 299.788879,65.156631 300.972504,62.675323 
	C293.353699,65.554161 286.703125,68.067131 279.330566,70.846870 
M198.291611,640.654907 
	C198.291611,644.402039 198.291611,648.149231 198.291611,652.112793 
	C218.188416,652.112793 237.623276,652.112793 257.058136,652.112793 
	C236.287872,633.843689 218.587708,613.630188 203.340454,591.182129 
	C202.886505,591.330444 202.432571,591.478821 201.978638,591.627136 
	C200.760635,607.654297 199.542618,623.681519 198.291611,640.654907 
M147.900040,498.369415 
	C142.081879,507.844543 136.263702,517.319702 129.892426,527.695618 
	C147.204468,536.232727 163.889175,544.460449 180.573883,552.688171 
	C180.959778,552.237061 181.345673,551.785889 181.731583,551.334778 
	C171.612381,528.580566 164.912979,504.841858 160.998352,478.959900 
	C156.264114,485.979218 152.285889,491.877655 147.900040,498.369415 
M157.915329,429.147858 
	C158.223373,428.285522 158.761200,427.434875 158.805878,426.559113 
	C159.920837,404.707855 163.638763,383.313995 169.925003,362.359283 
	C170.208054,361.415802 170.203445,360.386047 170.480057,358.270172 
	C154.873062,368.383057 140.175827,377.906464 124.742531,387.906799 
	C136.040604,402.147186 146.665024,415.538513 157.915329,429.147858 
M210.748993,248.165237 
	C202.891724,248.946243 195.034470,249.727264 186.463852,250.579178 
	C189.573593,268.006195 192.554016,284.708466 195.453979,300.959869 
	C209.683121,282.737427 223.620789,264.888214 236.730316,248.099579 
	C229.219360,248.099579 220.455261,248.099579 210.748993,248.165237 
M303.661011,168.827942 
	C301.531158,168.027756 299.401306,167.227585 296.495300,166.135803 
	C292.171234,181.235062 287.991760,195.829407 283.848755,210.296463 
	C302.245392,201.266647 320.204498,192.451569 338.741699,183.352768 
	C327.287842,178.585541 315.848846,173.824493 303.661011,168.827942 
z"/>
<path fill="#44B02B" opacity="1.000000" stroke="none" 
	d="
M570.791809,815.823364 
	C520.427551,834.441956 468.730499,842.832031 415.526733,840.702637 
	C341.094238,837.723694 272.579834,815.754822 210.341980,774.655579 
	C208.628098,773.523804 206.733749,771.298645 206.548553,769.422913 
	C203.571732,739.275696 200.856277,709.102783 198.103806,678.933594 
	C198.032578,678.153015 198.213745,677.349426 198.300171,676.269592 
	C202.511307,676.269592 206.466980,676.378235 210.415146,676.251892 
	C235.036179,675.463989 259.653870,674.563049 284.277832,673.888550 
	C286.910309,673.816467 289.945251,674.334351 292.170959,675.639893 
	C323.307098,693.903687 356.710663,705.876953 392.421051,710.727966 
	C449.646637,718.501770 504.605835,710.313110 555.716919,683.018494 
	C637.215027,639.496277 686.468811,571.732056 700.367554,480.345276 
	C719.794922,352.606873 646.053711,229.864548 524.810791,185.159592 
	C486.716095,171.113220 447.348450,166.085541 406.890930,169.691971 
	C405.743988,169.794235 404.579926,169.704895 402.530396,169.704895 
	C420.793243,147.207397 440.713531,127.056503 461.694122,107.107956 
	C438.146423,84.186584 413.231812,63.390816 386.612518,44.589336 
	C386.745850,44.173702 386.879150,43.758068 387.012482,43.342434 
	C397.415955,42.655689 407.810974,41.561062 418.224213,41.344887 
	C530.274170,39.018806 627.511108,75.916779 708.515686,153.375824 
	C773.918335,215.915726 813.762024,292.652283 826.433899,382.231781 
	C842.927979,498.830750 813.753418,603.727112 739.497864,695.278015 
	C694.573303,750.666138 637.845947,790.336365 570.791809,815.823364 
z"/>
<path fill="#44B12C" opacity="1.000000" stroke="none" 
	d="
M123.791672,351.771912 
	C118.703293,355.273010 113.913994,358.570770 108.645149,362.198700 
	C92.128098,335.761200 78.448616,308.196259 66.753738,279.039307 
	C94.818565,268.714783 123.294830,261.109344 152.468246,255.708862 
	C157.009659,279.145599 161.485703,302.244995 165.998703,325.535156 
	C152.303497,334.042664 138.197128,342.805603 123.791672,351.771912 
z"/>
<path fill="#45B12C" opacity="1.000000" stroke="none" 
	d="
M160.236206,648.782104 
	C134.570312,645.393555 109.639923,640.651367 84.930679,633.690369 
	C93.588753,605.278076 104.290077,578.127808 117.488869,551.578186 
	C119.085976,552.353455 120.395775,552.992737 121.708549,553.625916 
	C139.682434,562.295349 157.606567,571.071045 175.678528,579.531006 
	C178.819153,581.001099 179.593323,582.403259 179.247940,585.827454 
	C177.112457,606.999939 175.291153,628.203979 173.301987,650.096069 
	C169.434921,649.709656 165.058365,649.272339 160.236206,648.782104 
z"/>
<path fill="#45B12C" opacity="1.000000" stroke="none" 
	d="
M94.038574,504.945862 
	C76.010109,491.567810 58.294361,478.367523 40.141327,464.841431 
	C59.314774,443.283813 79.203308,424.475739 100.608879,406.963562 
	C114.323029,424.155426 127.960678,441.251404 141.617111,458.370911 
	C130.107498,476.241211 118.426987,494.376892 106.390274,513.065613 
	C102.549065,510.531616 98.450180,507.827606 94.038574,504.945862 
z"/>
<path fill="#45B12C" opacity="1.000000" stroke="none" 
	d="
M247.267700,150.821289 
	C251.983566,152.096024 256.302490,153.267090 260.677643,154.453415 
	C255.345734,173.941391 250.095200,193.131912 244.811111,212.445099 
	C224.662094,213.641525 204.318329,214.849518 183.657745,216.076324 
	C183.657745,190.444458 183.657745,164.892303 183.657745,138.622971 
	C205.796539,141.288239 226.423553,145.511993 247.267700,150.821289 
z"/>
<path fill="#45B12C" opacity="1.000000" stroke="none" 
	d="
M378.728027,89.286789 
	C386.688629,95.568283 394.370483,101.628822 402.390503,107.956161 
	C396.096893,114.969810 390.053680,121.530983 384.208954,128.264450 
	C377.779175,135.671921 371.505707,143.215958 365.224701,150.751007 
	C363.752960,152.516602 362.615540,153.757828 359.879700,152.536789 
	C343.503662,145.228027 327.033112,138.131027 309.347656,130.419464 
	C320.201385,108.654671 331.130096,86.739532 342.612183,63.714714 
	C355.269165,72.668236 366.859222,80.867027 378.728027,89.286789 
z"/>
<path fill="#45B12D" opacity="1.000000" stroke="none" 
	d="
M136.333923,711.663391 
	C122.241646,696.115112 109.335014,680.091125 97.762779,662.389160 
	C123.330132,666.630920 148.370453,670.785217 173.467575,674.948914 
	C175.340530,699.944885 177.248627,725.409912 179.214584,751.647095 
	C163.619263,739.533020 149.856583,725.992188 136.333923,711.663391 
z"/>
<path fill="#46B12D" opacity="1.000000" stroke="none" 
	d="
M42.979286,539.086731 
	C39.953094,524.551270 37.011395,510.419739 33.785213,494.921600 
	C54.554031,509.867859 73.906479,523.794861 93.200966,537.680115 
	C84.030762,559.313354 74.716736,581.285889 65.318939,603.455994 
	C55.926224,582.800720 48.703411,561.424683 42.979286,539.086731 
z"/>
<path fill="#46B12D" opacity="1.000000" stroke="none" 
	d="
M81.746544,382.810699 
	C64.762245,397.955048 48.051418,412.883789 31.073181,428.051422 
	C32.236343,391.121216 38.318130,354.901337 49.944103,318.593689 
	C50.993305,320.369354 51.628338,321.368835 52.191048,322.407562 
	C62.084385,340.669983 71.976738,358.932922 81.842430,377.210297 
	C82.771660,378.931763 85.030296,380.704193 81.746544,382.810699 
z"/>
<path fill="#47B12E" opacity="1.000000" stroke="none" 
	d="
M98.440552,218.408844 
	C113.120697,196.503571 129.569931,176.534927 149.026413,157.166153 
	C149.026413,179.202133 149.026413,200.015076 149.026413,221.193436 
	C129.262009,225.848633 108.814362,230.664749 87.390099,235.710892 
	C91.225151,229.698746 94.730942,224.202789 98.440552,218.408844 
z"/>
<path fill="#46B12E" opacity="1.000000" stroke="none" 
	d="
M279.691589,70.713486 
	C286.703125,68.067131 293.353699,65.554161 300.972504,62.675323 
	C299.788879,65.156631 299.044769,66.708046 298.307831,68.262878 
	C290.969452,83.745880 283.503906,99.170898 276.393738,114.758018 
	C274.810455,118.228928 273.595306,119.346146 269.500793,118.315987 
	C251.925217,113.894028 234.219803,109.988258 216.563446,105.886909 
	C215.972748,105.749687 215.400696,105.532166 214.039368,105.110008 
	C235.107529,91.274498 256.820190,80.310051 279.691589,70.713486 
z"/>
<path fill="#47B12E" opacity="1.000000" stroke="none" 
	d="
M198.308105,640.181763 
	C199.542618,623.681519 200.760635,607.654297 201.978638,591.627136 
	C202.432571,591.478821 202.886505,591.330444 203.340454,591.182129 
	C218.587708,613.630188 236.287872,633.843689 257.058136,652.112793 
	C237.623276,652.112793 218.188416,652.112793 198.291611,652.112793 
	C198.291611,648.149231 198.291611,644.402039 198.308105,640.181763 
z"/>
<path fill="#47B12E" opacity="1.000000" stroke="none" 
	d="
M148.103851,498.072754 
	C152.285889,491.877655 156.264114,485.979218 160.998352,478.959900 
	C164.912979,504.841858 171.612381,528.580566 181.731583,551.334778 
	C181.345673,551.785889 180.959778,552.237061 180.573883,552.688171 
	C163.889175,544.460449 147.204468,536.232727 129.892426,527.695618 
	C136.263702,517.319702 142.081879,507.844543 148.103851,498.072754 
z"/>
<path fill="#47B22E" opacity="1.000000" stroke="none" 
	d="
M157.602386,429.038818 
	C146.665024,415.538513 136.040604,402.147186 124.742531,387.906799 
	C140.175827,377.906464 154.873062,368.383057 170.480057,358.270172 
	C170.203445,360.386047 170.208054,361.415802 169.925003,362.359283 
	C163.638763,383.313995 159.920837,404.707855 158.805878,426.559113 
	C158.761200,427.434875 158.223373,428.285522 157.602386,429.038818 
z"/>
<path fill="#47B22F" opacity="1.000000" stroke="none" 
	d="
M211.220093,248.132416 
	C220.455261,248.099579 229.219360,248.099579 236.730316,248.099579 
	C223.620789,264.888214 209.683121,282.737427 195.453979,300.959869 
	C192.554016,284.708466 189.573593,268.006195 186.463852,250.579178 
	C195.034470,249.727264 202.891724,248.946243 211.220093,248.132416 
z"/>
<path fill="#48B22F" opacity="1.000000" stroke="none" 
	d="
M304.035431,168.945694 
	C315.848846,173.824493 327.287842,178.585541 338.741699,183.352768 
	C320.204498,192.451569 302.245392,201.266647 283.848755,210.296463 
	C287.991760,195.829407 292.171234,181.235062 296.495300,166.135803 
	C299.401306,167.227585 301.531158,168.027756 304.035431,168.945694 
z"/>
</svg>